<svg width="32" height="32" viewBox="0 0 32 32" fill="none" xmlns="http://www.w3.org/2000/svg">
<g id="Vector">
<path d="M0 3.55556C0 1.592 1.592 0 3.55556 0H28.4444C30.408 0 32 1.592 32 3.55556V28.4444C32 30.408 30.408 32 28.4444 32H3.55556C1.592 32 0 30.408 0 28.4444V3.55556Z" fill="#B388FF"/>
<path d="M2.66667 2.66667V29.3333H29.3333V2.66667H2.66667Z" fill="#170B40"/>
<path d="M13.496 19.5244H9.44711L8.67733 22.0542H6.22222L10.3947 9.77778H12.5342L16.7289 22.0533H14.2738L13.496 19.5244ZM10.0711 17.4756H12.8729L11.4649 12.88L10.0711 17.4756ZM21.4631 22.2222C20.816 22.2222 20.2373 22.1067 19.7271 21.8764C19.216 21.6462 18.7831 21.3307 18.4258 20.9316C18.0684 20.5324 17.7973 20.0649 17.6098 19.528C17.4231 18.9911 17.3289 18.4169 17.3289 17.8036V17.4747C17.3289 16.7831 17.4204 16.1493 17.6027 15.5733C17.784 14.9973 18.0436 14.5013 18.3804 14.0853C18.7156 13.6693 19.1244 13.3449 19.6036 13.1111C20.0836 12.8782 20.6213 12.7609 21.216 12.7609C21.816 12.7609 22.3449 12.8693 22.8018 13.0853C23.2587 13.3013 23.6418 13.6053 23.9529 13.9964C24.2631 14.3867 24.4969 14.8578 24.6533 15.4089C24.8098 15.96 24.8889 16.5733 24.8889 17.248V18.2853H19.5858C19.6213 18.5831 19.6951 18.8533 19.8053 19.0942C19.9156 19.336 20.0569 19.5422 20.2284 19.7138C20.4 19.8853 20.6018 20.0187 20.832 20.1147C21.0631 20.2107 21.3227 20.2578 21.6098 20.2578C22.0151 20.2578 22.3902 20.1751 22.7333 20.0089C23.0773 19.8436 23.3724 19.5858 23.6187 19.2373L24.712 20.5778C24.5787 20.7858 24.4116 20.9884 24.2116 21.1849C24.0116 21.3813 23.7751 21.5573 23.5031 21.712C23.2311 21.8667 22.9253 21.9902 22.5831 22.0827C22.2418 22.176 21.8693 22.2222 21.4631 22.2222ZM21.2098 14.7351C20.968 14.7351 20.7573 14.7813 20.5742 14.8747C20.392 14.9671 20.2356 15.0969 20.1049 15.2622C19.9742 15.4276 19.8676 15.6258 19.7858 15.8569C19.704 16.0871 19.6453 16.3431 19.6098 16.624H22.704V16.4302C22.6987 16.1884 22.6667 15.9636 22.6071 15.7556C22.5484 15.5476 22.4587 15.368 22.3378 15.216C22.2169 15.064 22.0631 14.9467 21.8764 14.8622C21.6871 14.7778 21.4658 14.7351 21.2098 14.7351Z" fill="#B388FF"/>
</g>
</svg>
