<svg width="32" height="32" viewBox="0 0 32 32" fill="none" xmlns="http://www.w3.org/2000/svg">
<g id="Vector">
<path d="M0 3.55556C0 1.592 1.592 0 3.55556 0H28.4444C30.408 0 32 1.592 32 3.55556V28.4444C32 30.408 30.408 32 28.4444 32H3.55556C1.592 32 0 30.408 0 28.4444V3.55556Z" fill="#FF5722"/>
<path d="M2.66667 2.66667V29.3333H29.3333V2.66667H2.66667ZM15.7253 22.2222L15.048 19.6356H11.5671L10.8907 22.2222H8.19111L12.1404 9.58311H14.4756L18.4516 22.2222H15.7253ZM22.0889 22.2222H19.624V12.8302H22.0889V22.2222ZM21.824 11.3369C21.5831 11.5858 21.2587 11.7102 20.8471 11.7102C20.4356 11.7102 20.1111 11.5858 19.8702 11.3369C19.6293 11.088 19.5102 10.7751 19.5102 10.3991C19.5102 10.0169 19.632 9.70489 19.8747 9.46133C20.1173 9.21778 20.4427 9.09689 20.8471 9.09689C21.2516 9.09689 21.576 9.21867 21.8196 9.46133C22.0631 9.704 22.184 10.0169 22.184 10.3991C22.184 10.7751 22.064 11.088 21.824 11.3369Z" fill="#1C0802"/>
<path d="M12.1236 17.5084H14.4844L13.304 13.0036L12.1236 17.5084Z" fill="#1C0802"/>
</g>
</svg>
