<svg width="32" height="32" viewBox="0 0 32 32" fill="none" xmlns="http://www.w3.org/2000/svg">
<g id="Vector">
<path fill-rule="evenodd" clip-rule="evenodd" d="M5.62717 5.61057C6.62243 6.41922 6.99565 6.35783 8.865 6.23261L26.4857 5.17434C26.8597 5.17434 26.5487 4.80192 26.4243 4.73972L23.4983 2.62398C22.9376 2.18855 22.1904 1.69011 20.7589 1.81452L3.69723 3.0586C3.07519 3.11999 2.95079 3.43101 3.19879 3.68064L5.62717 5.61057Z" fill="white"/>
<path fill-rule="evenodd" clip-rule="evenodd" d="M6.68464 9.71684V28.2568C6.68464 29.2529 7.18227 29.6261 8.30355 29.5647L27.6684 28.4443C28.7896 28.3829 28.9149 27.697 28.9149 26.8875V8.47195C28.9149 7.66411 28.6038 7.22788 27.918 7.29008L7.68151 8.47195C6.93426 8.53416 6.68464 8.90819 6.68464 9.71684Z" fill="white"/>
<path fill-rule="evenodd" clip-rule="evenodd" d="M5.62717 5.61057C6.62243 6.41922 6.99565 6.35783 8.865 6.23261L26.4857 5.17434C26.8597 5.17434 26.5487 4.80192 26.4243 4.73972L23.4983 2.62398C22.9376 2.18855 22.1904 1.69011 20.7589 1.81452L3.69723 3.0586C3.07519 3.11999 2.95079 3.43101 3.19879 3.68064L5.62717 5.61057ZM6.68464 9.71684V28.2568C6.68464 29.2529 7.18227 29.6261 8.30355 29.5647L27.6684 28.4443C28.7896 28.3829 28.9149 27.697 28.9149 26.8875V8.47195C28.9149 7.66411 28.6038 7.22788 27.918 7.29008L7.68151 8.47195C6.93426 8.53416 6.68464 8.90819 6.68464 9.71684ZM25.8014 10.7113C25.9258 11.2719 25.8014 11.8318 25.24 11.8948L24.3069 12.0806V25.7679C23.4967 26.2033 22.7494 26.4521 22.1274 26.4521C21.1305 26.4521 20.8809 26.1411 20.1344 25.208L14.0312 15.627V24.897L15.9627 25.3324C15.9627 25.3324 15.9627 26.4521 14.4044 26.4521L10.1091 26.7009C9.98467 26.4521 10.1091 25.8301 10.5445 25.7057L11.6658 25.3946V13.1389L10.1091 13.0145C9.98387 12.4538 10.2949 11.646 11.1674 11.583L15.7753 11.2719L22.1266 20.9782V12.3916L20.5068 12.2058C20.3824 11.5208 20.8801 11.0231 21.5029 10.9617L25.8014 10.7113ZM2.26331 1.3799L20.01 0.0728101C22.1896 -0.113802 22.7502 0.0114142 24.1195 1.00587L29.7849 4.98773C30.7196 5.67278 31.0314 5.85939 31.0314 6.60503V28.4426C31.0314 29.8111 30.533 30.6206 28.7896 30.7442L8.17995 31.9891C6.87125 32.0513 6.2484 31.8647 5.56335 30.9938L1.39165 25.5813C0.644394 24.5852 0.333374 23.8396 0.333374 22.9679V3.55623C0.333374 2.43737 0.831813 1.5035 2.26331 1.3799Z" fill="#424242"/>
</g>
</svg>
