<svg width="32" height="32" viewBox="0 0 32 32" fill="none" xmlns="http://www.w3.org/2000/svg">
<g id="Vector">
<path d="M0 3.55556C0 1.592 1.592 0 3.55556 0H28.4444C30.408 0 32 1.592 32 3.55556V28.4444C32 30.408 30.408 32 28.4444 32H3.55556C1.592 32 0 30.408 0 28.4444V3.55556Z" fill="#E040FB"/>
<path d="M2.66667 2.66667V29.3333H29.3333V2.66667H2.66667ZM13.3476 11.7102H11.568V15.6516H13.3218C13.808 15.6516 14.184 15.4924 14.4507 15.1742C14.7173 14.856 14.8498 14.3929 14.8498 13.7849C14.8498 13.1538 14.7138 12.6524 14.4418 12.2791C14.1698 11.9058 13.8044 11.7164 13.3476 11.7102ZM16.3244 16.7013C15.5902 17.4196 14.5716 17.7778 13.2693 17.7778H11.568V22.2222H8.88889V9.58311H13.3218C14.5716 9.58311 15.5689 9.97156 16.312 10.7467C17.0551 11.5218 17.4276 12.5289 17.4276 13.7671C17.4276 15.0053 17.0596 15.9831 16.3244 16.7013ZM24.1778 15.2L23.3778 15.1111C22.6667 15.1111 22.2222 15.3778 22.0444 16V22.2222H19.5556V12.8H21.8667L21.9556 13.7778C22.3111 12.9778 22.8444 12.6222 23.5556 12.6222C23.8222 12.6222 24.0889 12.6222 24.2667 12.7111L24.1778 15.2Z" fill="#020F16"/>
</g>
</svg>
