<svg width="32" height="32" viewBox="0 0 32 32" fill="none" xmlns="http://www.w3.org/2000/svg">
<g id="Vector">
<path d="M0 3.55556C0 1.592 1.592 0 3.55556 0H28.4444C30.408 0 32 1.592 32 3.55556V28.4444C32 30.408 30.408 32 28.4444 32H3.55556C1.592 32 0 30.408 0 28.4444V3.55556Z" fill="#03A9F4"/>
<path d="M12.4587 11.7102H10.6791V15.6516H12.4329C12.9191 15.6516 13.2951 15.4924 13.5618 15.1742C13.8284 14.856 13.9609 14.3929 13.9609 13.7849C13.9609 13.1538 13.8249 12.6524 13.5529 12.2791C13.2809 11.9058 12.9156 11.7164 12.4587 11.7102Z" fill="#020F16"/>
<path d="M2.66667 2.66667V29.3333H29.3333V2.66667H2.66667ZM15.4356 16.7013C14.7013 17.4196 13.6827 17.7778 12.3804 17.7778H10.6791V22.2222H8.12711V9.58311H12.4329C13.6827 9.58311 14.68 9.97156 15.4231 10.7467C16.1662 11.5218 16.5387 12.5289 16.5387 13.7671C16.5387 15.0053 16.1707 15.9831 15.4356 16.7013ZM23.7173 21.632C23.0871 22.1413 22.2587 22.3956 21.2347 22.3956C20.5458 22.3956 19.9378 22.2613 19.4116 21.992C18.8853 21.7227 18.472 21.3476 18.1742 20.8676C17.8764 20.3876 17.7271 19.8693 17.7271 19.3138H20.0622C20.0747 19.7413 20.1733 20.0631 20.3618 20.2773C20.5502 20.4916 20.8578 20.5982 21.2862 20.5982C21.9458 20.5982 22.2756 20.3004 22.2756 19.704C22.2756 19.496 22.176 19.3031 21.976 19.1271C21.776 18.9511 21.3333 18.7129 20.6444 18.4116C19.632 18.0009 18.936 17.576 18.5564 17.1351C18.1769 16.6942 17.9876 16.1484 17.9876 15.4942C17.9876 14.672 18.2844 13.9938 18.8773 13.4587C19.4702 12.9236 20.2569 12.656 21.2338 12.656C22.2631 12.656 23.088 12.9227 23.7076 13.4542C24.3271 13.9858 24.6364 14.7013 24.6364 15.5982H22.1796C22.1796 14.8347 21.8622 14.4524 21.2249 14.4524C20.9644 14.4524 20.7511 14.5333 20.5822 14.6951C20.4133 14.8569 20.3307 15.0836 20.3307 15.3724C20.3307 15.5804 20.4231 15.7644 20.6089 15.9236C20.7947 16.0827 21.2302 16.3102 21.92 16.6053C22.9218 16.976 23.6284 17.3884 24.0427 17.8427C24.4569 18.2969 24.6631 18.8862 24.6631 19.6089C24.6631 20.4489 24.3476 21.1227 23.7173 21.632Z" fill="#020F16"/>
</g>
</svg>
